#!OML:ASF F:\VICON\USERDATA\INSTALL\rory3\rory3.ASF
:FULLY-SPECIFIED
:DEGREES
34
root 0.942321 18.2973 -14.6076 6.27281 4.47592 3.21279
lowerback 16.6175 -3.67056 -5.53354
upperback 0.923175 -5.93377 -0.673532
thorax -7.81439 -2.67638 3.73551
lowerneck -4.87388 2.1675 -0.191797
upperneck -11.9066 2.86794 -0.386034
head -2.95506 1.44059 -0.122748
rclavicle 6.16232e-015 -6.75868e-015
rhumerus -62.3059 6.224 -87.5614
rradius 84.8866
rwrist -0.485094
rhand -40.8872 32.0242
rfingers 7.12502
rthumb -13.8229 2.50351
lclavicle 6.16232e-015 -6.75868e-015
lhumerus -11.2746 -21.724 83.8566
lradius 126.752
lwrist 26.4185
lhand -39.1984 3.58774
lfingers 7.12502
lthumb -12.1949 33.2123
rfemur -51.6584 -3.37072 18.1001
rtibia 81.5024
rfoot 10.9554 -8.96998
rtoes 4.01699
lfemur 16.537 -4.37432 -25.8389
ltibia 12.1168
lfoot 16.9687 0.0349431
ltoes -23.5195
35
root 0.930239 18.3869 -14.0521 6.53566 3.65482 3.11207
lowerback 16.2781 -3.55798 -5.59133
upperback 0.695909 -5.77776 -0.561314
thorax -7.87032 -2.59235 3.83791
lowerneck -5.12563 2.23717 -0.0465703
upperneck -11.3148 2.9392 -0.603456
head -2.70259 1.47539 -0.208205
rclavicle 1.31198e-014 -1.47101e-014
rhumerus -63.1912 5.83542 -87.1323
rradius 85.2252
rwrist -1.13064
rhand -40.3706 31.6192
rfingers 7.12502
rthumb -13.325 2.06527
lclavicle 1.31198e-014 -1.47101e-014
lhumerus -11.3341 -21.826 83.7479
lradius 127.276
lwrist 26.1788
lhand -39.2921 3.9286
lfingers 7.12502
lthumb -12.2853 33.5477
rfemur -51.7202 -1.96234 17.8218
rtibia 76.7556
rfoot 10.6243 -7.76178
rtoes -0.19294
lfemur 19.7955 -3.98664 -25.7418
ltibia 7.16465
lfoot 23.2403 2.34304
ltoes -23.915
36
root 0.924079 18.4788 -13.4968 6.76528 2.87515 2.9822
lowerback 16.1103 -3.47215 -5.50384
upperback 0.366064 -5.64806 -0.471068
thorax -8.14792 -2.51455 3.86205
lowerneck -5.12844 2.36824 0.0488747
upperneck -10.8028 3.10156 -0.751067
head -2.52512 1.55585 -0.266799
rclavicle -2.9122e-014 -5.96354e-015
rhumerus -64.2191 5.60244 -86.7864
rradius 85.7159
rwrist -1.89908
rhand -40.0187 30.4775
rfingers 7.12502
rthumb -12.9858 0.901627
lclavicle -2.9122e-014 -5.96354e-015
lhumerus -11.7815 -21.8867 83.7102
lradius 127.888
lwrist 26.0333
lhand -39.0295 3.92877
lfingers 7.12502
lthumb -12.0321 33.5629
rfemur -51.5017 -0.63272 17.5005
rtibia 71.7893
rfoot 10.4596 -6.56732
rtoes -2.10262
lfemur 24.2678 -3.66945 -25.546
ltibia -1.27222e-014
lfoot 30.1315 5.33915
ltoes -22.6685
37
root 0.92279 18.5616 -12.9403 6.90651 2.12167 2.97533
lowerback 15.789 -3.4116 -5.50004
upperback 0.246783 -5.54846 -0.409401
thorax -8.10184 -2.46681 3.8848
lowerneck -5.20285 2.56133 0.102082
upperneck -10.4959 3.35059 -0.867675
head -2.40562 1.68026 -0.309284
rclavicle -5.35725e-014 -5.56597e-015
rhumerus -64.7115 5.5976 -86.4993
rradius 85.875
rwrist -2.28472
rhand -39.7937 29.4348
rfingers 7.12502
rthumb -12.7689 -0.154705
lclavicle -5.35725e-014 -5.56597e-015
lhumerus -12.0645 -21.848 83.6125
lradius 128.426
lwrist 25.84
lhand -38.6362 3.39291
lfingers 7.12502
lthumb -11.6529 33.0489
rfemur -51.0144 0.569929 17.0121
rtibia 66.6685
rfoot 10.3287 -6.67505
rtoes 0.923916
lfemur 25.2468 -3.32979 -25.5868
ltibia 3.81667e-014
lfoot 32.3999 7.29368
ltoes -20.8519
38
root 0.923422 18.6358 -12.3819 7.06405 1.49754 3.05256
lowerback 15.451 -3.38628 -5.42732
upperback 0.128843 -5.48687 -0.405495
thorax -8.05312 -2.4413 3.81433
lowerneck -5.21607 2.74281 0.135789
upperneck -10.3543 3.58478 -0.978549
head -2.35245 1.79797 -0.34895
rclavicle -3.57812e-014 -2.3059e-014
rhumerus -65.065 5.58783 -86.2944
rradius 85.9279
rwrist -2.35876
rhand -40.0007 28.3964
rfingers 7.12502
rthumb -12.9684 -1.18058
lclavicle -3.57812e-014 -2.3059e-014
lhumerus -12.3248 -21.9907 83.5409
lradius 128.703
lwrist 25.121
lhand -38.7263 2.98405
lfingers 7.12502
lthumb -11.7397 32.6351
rfemur -50.3494 1.60699 16.4025
rtibia 61.4188
rfoot 9.73518 -5.52348
rtoes 0.626747
lfemur 26.3502 -3.11074 -25.7709
ltibia -6.04305e-014
lfoot 31.7131 8.72753
ltoes -28.2167
39
root 0.92202 18.7047 -11.8279 7.13617 1.02012 3.00662
lowerback 15.156 -3.38058 -5.25743
upperback 0.148104 -5.42783 -0.371295
thorax -7.88416 -2.42735 3.71968
lowerneck -5.54083 2.83376 0.351479
upperneck -10.0767 3.68363 -1.19853
head -2.1955 1.84311 -0.44478
rclavicle -2.24627e-014 1.63003e-014
rhumerus -65.1251 5.52801 -86.1282
rradius 86.1142
rwrist -2.18934
rhand -39.6309 27.4457
rfingers 7.12502
rthumb -12.612 -2.15362
lclavicle -2.24627e-014 1.63003e-014
lhumerus -12.6602 -22.2398 83.4399
lradius 128.981
lwrist 24.3424
lhand -39.3037 1.24177
lfingers 7.12502
lthumb -12.2965 30.8602
rfemur -49.385 2.72079 15.8868
rtibia 56.0348
rfoot 9.16929 -4.27431
rtoes -0.943015
lfemur 27.6965 -2.99951 -25.8721
ltibia -2.22639e-014
lfoot 30.3283 9.81649
ltoes -32.528
